# xmcd CD database file
#
# Track frame offsets:
#	183
#	12978
#	25613
#	41805
#	57055
#	75248
#	89035
#	104283
#	114880
#	126338
#
# Disc length: 1859 seconds
#
# Revision: 3
# Processed by: cddbd v1.5PL3 Copyright (c) Steve Scherf et al.
# Submitted via: Feurio! 1.67 - http://www.feurio.com
#
DISCID=7207410a
DTITLE=Kathy Mattea - From My Heart
DYEAR=1985
DGENRE=Country
TTITLE0=It's Your Reputation Talkin'
TTITLE1=I Believe I Could Fall In Love (With Loving You)
TTITLE2=Trail Of Tears
TTITLE3=Never Look Back
TTITLE4=Heart Of The Country
TTITLE5=Ball And Chain
TTITLE6=When I'm Over You (What You Gonna Do)
TTITLE7=Talkin' To Myself
TTITLE8=He Won't Give In
TTITLE9=If I Hadn't Met You
EXTD=(c)1985 Polygram /Mercury\r\nupc 04228243082
EXTT0=
EXTT1=
EXTT2=
EXTT3=
EXTT4=
EXTT5=
EXTT6=
EXTT7=
EXTT8=
EXTT9=
PLAYORDER=
